<svg width="174" height="45" viewBox="0 0 174 45" fill="none" xmlns="http://www.w3.org/2000/svg">
<path d="M3.16423 36V10.8H13.7842C15.6322 10.8 17.3242 11.112 18.8602 11.736C20.3962 12.336 21.7162 13.2 22.8202 14.328C23.9242 15.432 24.7762 16.764 25.3762 18.324C25.9762 19.86 26.2762 21.552 26.2762 23.4C26.2762 25.272 25.9762 26.976 25.3762 28.512C24.7762 30.048 23.9242 31.38 22.8202 32.508C21.7162 33.612 20.3962 34.476 18.8602 35.1C17.3482 35.7 15.6562 36 13.7842 36H3.16423ZM9.32023 31.752L8.52823 30.564H13.6042C14.5882 30.564 15.4762 30.396 16.2682 30.06C17.0602 29.724 17.7322 29.244 18.2842 28.62C18.8602 27.972 19.2922 27.216 19.5802 26.352C19.8922 25.464 20.0482 24.48 20.0482 23.4C20.0482 22.32 19.8922 21.348 19.5802 20.484C19.2922 19.596 18.8602 18.84 18.2842 18.216C17.7322 17.568 17.0602 17.076 16.2682 16.74C15.4762 16.404 14.5882 16.236 13.6042 16.236H8.42023L9.32023 15.12V31.752ZM40.6568 36.36C38.7608 36.36 37.0088 36.036 35.4008 35.388C33.8168 34.74 32.4368 33.84 31.2608 32.688C30.1088 31.512 29.2088 30.132 28.5608 28.548C27.9128 26.94 27.5888 25.188 27.5888 23.292C27.5888 21.42 27.9128 19.692 28.5608 18.108C29.2088 16.5 30.1088 15.108 31.2608 13.932C32.4368 12.756 33.8168 11.844 35.4008 11.196C37.0088 10.548 38.7608 10.224 40.6568 10.224C42.5288 10.224 44.2568 10.548 45.8408 11.196C47.4248 11.844 48.7928 12.756 49.9448 13.932C51.1208 15.108 52.0328 16.5 52.6808 18.108C53.3288 19.692 53.6528 21.432 53.6528 23.328C53.6528 25.2 53.3288 26.928 52.6808 28.512C52.0328 30.096 51.1208 31.476 49.9448 32.652C48.7928 33.828 47.4248 34.74 45.8408 35.388C44.2568 36.036 42.5288 36.36 40.6568 36.36ZM40.6568 30.564C41.6408 30.564 42.5408 30.384 43.3568 30.024C44.1728 29.664 44.8808 29.16 45.4808 28.512C46.1048 27.864 46.5848 27.096 46.9208 26.208C47.2568 25.32 47.4248 24.36 47.4248 23.328C47.4248 22.272 47.2568 21.3 46.9208 20.412C46.5848 19.524 46.1048 18.756 45.4808 18.108C44.8808 17.436 44.1728 16.92 43.3568 16.56C42.5408 16.2 41.6408 16.02 40.6568 16.02C39.6728 16.02 38.7608 16.2 37.9208 16.56C37.1048 16.92 36.3848 17.436 35.7608 18.108C35.1608 18.756 34.6928 19.524 34.3568 20.412C34.0208 21.3 33.8528 22.272 33.8528 23.328C33.8528 24.72 34.1408 25.968 34.7168 27.072C35.3168 28.152 36.1208 29.004 37.1288 29.628C38.1608 30.252 39.3368 30.564 40.6568 30.564ZM56.5174 36V10.8H62.0254L75.2734 28.764L74.0854 28.62C73.9174 27.276 73.7734 26.028 73.6534 24.876C73.5334 23.7 73.4494 22.476 73.4014 21.204C73.3774 19.932 73.3654 18.468 73.3654 16.812V10.8H79.3414V36H73.7614L60.0094 17.496L61.7734 17.748C61.9414 19.212 62.0734 20.424 62.1694 21.384C62.2654 22.344 62.3374 23.172 62.3854 23.868C62.4334 24.54 62.4694 25.176 62.4934 25.776C62.5174 26.352 62.5294 27 62.5294 27.72V36H56.5174ZM95.4916 36.36C93.4756 36.36 91.6516 36.036 90.0196 35.388C88.4116 34.74 87.0196 33.828 85.8436 32.652C84.6676 31.476 83.7676 30.096 83.1436 28.512C82.5196 26.928 82.2076 25.2 82.2076 23.328C82.2076 21.456 82.5436 19.728 83.2156 18.144C83.8876 16.56 84.8236 15.18 86.0236 14.004C87.2476 12.828 88.6876 11.916 90.3436 11.268C92.0236 10.62 93.8596 10.296 95.8516 10.296C97.2196 10.296 98.5156 10.476 99.7396 10.836C100.988 11.196 102.116 11.688 103.124 12.312C104.156 12.936 105.008 13.644 105.68 14.436L101.9 18.396C101.036 17.58 100.1 16.944 99.0916 16.488C98.1076 16.008 96.9916 15.768 95.7436 15.768C94.7116 15.768 93.7516 15.96 92.8636 16.344C91.9996 16.704 91.2316 17.232 90.5596 17.928C89.9116 18.6 89.4076 19.404 89.0476 20.34C88.6876 21.252 88.5076 22.248 88.5076 23.328C88.5076 24.408 88.6996 25.404 89.0836 26.316C89.4676 27.228 89.9956 28.032 90.6676 28.728C91.3636 29.4 92.1676 29.928 93.0796 30.312C93.9916 30.696 94.9756 30.888 96.0316 30.888C96.7756 30.888 97.4596 30.78 98.0836 30.564C98.7316 30.324 99.2956 30.012 99.7756 29.628C100.28 29.22 100.664 28.752 100.928 28.224C101.216 27.672 101.36 27.084 101.36 26.46V25.524L102.152 26.748H95.2756V21.888H107.12C107.168 22.152 107.204 22.512 107.228 22.968C107.252 23.424 107.264 23.868 107.264 24.3C107.288 24.708 107.3 25.032 107.3 25.272C107.3 26.904 107 28.404 106.4 29.772C105.824 31.116 104.996 32.28 103.916 33.264C102.86 34.248 101.612 35.016 100.172 35.568C98.7316 36.096 97.1716 36.36 95.4916 36.36ZM121.817 36.36C119.801 36.36 117.977 36.036 116.345 35.388C114.737 34.74 113.345 33.828 112.169 32.652C110.993 31.476 110.093 30.096 109.469 28.512C108.845 26.928 108.533 25.2 108.533 23.328C108.533 21.456 108.869 19.728 109.541 18.144C110.213 16.56 111.149 15.18 112.349 14.004C113.573 12.828 115.013 11.916 116.669 11.268C118.349 10.62 120.185 10.296 122.177 10.296C123.545 10.296 124.841 10.476 126.065 10.836C127.313 11.196 128.441 11.688 129.449 12.312C130.481 12.936 131.333 13.644 132.005 14.436L128.225 18.396C127.361 17.58 126.425 16.944 125.417 16.488C124.433 16.008 123.317 15.768 122.069 15.768C121.037 15.768 120.077 15.96 119.189 16.344C118.325 16.704 117.557 17.232 116.885 17.928C116.237 18.6 115.733 19.404 115.373 20.34C115.013 21.252 114.833 22.248 114.833 23.328C114.833 24.408 115.025 25.404 115.409 26.316C115.793 27.228 116.321 28.032 116.993 28.728C117.689 29.4 118.493 29.928 119.405 30.312C120.317 30.696 121.301 30.888 122.357 30.888C123.101 30.888 123.785 30.78 124.409 30.564C125.057 30.324 125.621 30.012 126.101 29.628C126.605 29.22 126.989 28.752 127.253 28.224C127.541 27.672 127.685 27.084 127.685 26.46V25.524L128.477 26.748H121.601V21.888H133.445C133.493 22.152 133.529 22.512 133.553 22.968C133.577 23.424 133.589 23.868 133.589 24.3C133.613 24.708 133.625 25.032 133.625 25.272C133.625 26.904 133.325 28.404 132.725 29.772C132.149 31.116 131.321 32.28 130.241 33.264C129.185 34.248 127.937 35.016 126.497 35.568C125.057 36.096 123.497 36.36 121.817 36.36ZM136.442 36V10.8H142.598V30.564H153.83V36H136.442Z" fill="#5F0080"/>
<rect x="165.475" y="9" width="5" height="19.0111" transform="rotate(45 165.475 9)" fill="#FFB800"/>
<rect x="173.032" y="20" width="5" height="15" transform="rotate(90 173.032 20)" fill="#FFB800"/>
<rect x="169.011" y="32.4429" width="5" height="19.0111" transform="rotate(135 169.011 32.4429)" fill="#FFB800"/>
</svg>
